# xmcd
#
# Track frame offsets:
#	150
#	32482
#	38106
#	43880
#	68624
#	89334
#	100959
#	128756
#	169194
#	183164
#	218327
#	227268
#	240300
#	255165
#	269222
#	295200
#
# Disc length: 4363 seconds
#
# Revision: 0
# Processed by: cddbd v1.5.1PL2 Copyright (c) Steve Scherf et al.
# Submitted via: EasyCDDAExtractor 8.2.3.1
#
DISCID=cf110910
DTITLE=Paul Barrere and Fred Tackett - Grand Lido Negril - Jamaica 01-29-04 (mat
DTITLE=rix) disc 2
DYEAR=2004
DGENRE=Blues
TTITLE0=Down On The Farm ->
TTITLE1=Candyman ->
TTITLE2=Down On The Farm
TTITLE3=Love sweet Love
TTITLE4=Dixie Chicken ->
TTITLE5=Tennessee Jed
TTITLE6=Dixie Chicken
TTITLE7=All That You Dream
TTITLE8=(announcements)
TTITLE9=Willin' ->
TTITLE10=Don't Bogart That Joint ->
TTITLE11=Long Black Veil ->
TTITLE12=The weight ->
TTITLE13=Willin'
TTITLE14=Eula
TTITLE15=Old Folks Boogie
EXTD=
EXTT0=
EXTT1=
EXTT2=
EXTT3=
EXTT4=
EXTT5=
EXTT6=
EXTT7=
EXTT8=
EXTT9=
EXTT10=
EXTT11=
EXTT12=
EXTT13=
EXTT14=
EXTT15=
PLAYORDER=
